<svg width="16" height="16" viewBox="0 0 22 21" fill="none" xmlns="http://www.w3.org/2000/svg">
    <path d="M11 21.0001C6.95355 21.0024 3.30449 18.5659 1.75566 14.8276C0.206833 11.0893 1.06354 6.78608 3.926 3.926C6.45329 1.39871 10.1369 0.411684 13.5893 1.33674C17.0416 2.26179 19.7382 4.95839 20.6633 8.41074C21.5883 11.8631 20.6013 15.5467 18.074 18.074C16.2014 19.955 13.6542 21.0086 11 21.0001ZM3 11.172C3.04731 15.5732 6.6411 19.1095 11.0425 19.086C15.444 19.0622 18.9995 15.4875 18.9995 11.086C18.9995 6.68451 15.444 3.10978 11.0425 3.086C6.6411 3.06246 3.04731 6.59876 3 11V11.172ZM8.409 15L7 13.59L9.59 11L7 8.41L8.41 7L11 9.59L13.59 7L15 8.41L12.41 11L15 13.59L13.591 15L11 12.41L8.41 15H8.409Z" fill="#1D1C1F"/>
</svg>
